<svg viewBox="9.5 14.69689119170988 394.25000000000006 331.86528497409324" fill="none" xmlns="http://www.w3.org/2000/svg" xmlns:xlink="http://www.w3.org/1999/xlink" overflow="visible" width="394.25000000000006px" height="331.86528497409324px"><g id="Master/Spot Illustration/City Tour"><g id="Time of the Day" transform="translate(0 -5) scale(1.7867494824016563 1.7868852459016393)"><g id="Time of the Day/Morning"><g id="Elements"><g id="Group 3"><mask id="mask0d5846fa1-fbb4-4637-998f-800fca01025d" mask-type="alpha" maskUnits="userSpaceOnUse" x="42" y="67" width="402" height="241" fill="#ffffff"><path id="Clip 2" fill-rule="evenodd" clip-rule="evenodd" d="M42.0254 67.3918H443.794V308H42.0254V67.3918Z" fill="#ffffff"/></mask><g mask="url(#mask0d5846fa1-fbb4-4637-998f-800fca01025d)"><path id="Fill 1" fill-rule="evenodd" clip-rule="evenodd" d="M387.772 117.71C412.392 131.14 430.133 157.277 438.58 184.645C442.713 198.03 445.095 212.22 443.047 226.077C438.499 256.826 412.511 280.951 383.545 292.268C363.156 300.236 341.219 303.005 319.49 304.185C309.997 304.701 300.049 303.843 290.94 306.626C281.343 309.556 269.244 307.037 259.43 306.067C251.812 305.312 244.197 304.48 236.547 304.101C215.651 303.066 194.784 305.324 173.893 305.405C164.366 305.441 151.827 306.865 143.096 302.245C136.431 298.72 129.128 296.529 122.109 293.717C106.922 287.632 92.0639 280.373 78.9893 270.446C59.9263 255.971 44.6927 234.885 42.3382 211.072C40.2979 190.444 48.3688 169.311 62.7183 154.344C73.7165 142.87 88.027 134.898 98.6282 123.057C107.768 112.847 113.8 100.141 123.117 90.0925C147.522 63.772 190.44 61.6471 222.894 76.9961C242.755 86.3883 260.14 101.38 281.407 106.899C309.332 114.145 339.383 103.873 367.556 110.088C374.718 111.667 381.471 114.272 387.772 117.71" fill="#D8F3FF"/></g></g><path id="Fill 4" fill-rule="evenodd" clip-rule="evenodd" d="M37.2503 170.063C48.4042 159.072 71.7745 165.078 71.7745 179.363C85.9999 172.554 95.7365 182.357 96.9999 185.98C95.792 186.892 95.1333 187.827 94.4685 187.833C76.3061 187.945 58.1407 187.964 39.9768 188C31.9999 189.44 24.8964 183.5 37.2503 170.063Z" fill="white"/><g id="Group 8"><path id="Fill 6" fill-rule="evenodd" clip-rule="evenodd" d="M332.75 307.42C308.596 307.42 284.647 304.153 262.699 300.402L261.26 300.156C250.334 298.282 188.613 304.183 177.6 305.812L177.785 304.828C188.908 303.189 250.397 297.604 261.374 299.487L262.813 299.733C333.584 311.83 367.273 306.049 390.897 298.8C410.653 292.735 424.953 283.539 433.397 271.462C438.757 263.796 441.785 254.92 443.821 248.043C447.121 236.908 449.369 225.366 450.502 213.736C451.652 201.915 451.243 190.125 450.68 178.08C450.605 176.493 450.337 175.029 450.054 173.481C449.87 172.477 449.679 171.439 449.548 170.37C448.502 161.811 446.454 154.224 443.463 147.819C442.4 145.542 440.648 143.328 438.951 141.189C438.122 140.14 437.339 139.152 436.635 138.159C427.24 124.918 412.857 115.422 397.177 112.105C381.786 108.849 365.781 111.319 350.304 113.709C345.434 114.462 340.397 115.239 335.458 115.825C313.271 118.462 293.49 116.92 276.669 111.252C260.968 105.96 246.799 96.7828 233.096 87.9088C227.207 84.0943 221.119 80.1522 214.991 76.5702C189.387 61.6032 166.787 56.8797 147.824 62.5332C130.775 67.6137 115.67 81.3612 102.932 103.395C97.7323 112.389 92.9904 121.788 88.4035 130.879C78.8037 149.908 68.8758 169.585 54.3428 186.249C53.1792 187.582 51.993 188.902 50.8052 190.224C46.0768 195.489 41.1859 200.932 37.8409 207.234C29.9573 222.084 31.1841 242.337 40.9661 258.828C52.0712 277.554 72.4977 290.131 94.2715 291.649C102.845 292.249 111.55 291.193 119.97 290.173C126.109 289.429 132.458 288.66 138.734 288.529C156.752 288.171 171.506 294.484 178.181 305.46L177.6 305.812C171.05 295.047 156.514 288.81 138.749 289.209C132.507 289.338 126.175 290.106 120.053 290.847C111.6 291.871 102.86 292.929 94.2248 292.327C72.2282 290.793 51.597 278.089 40.379 259.174C30.4811 242.482 29.2467 221.971 37.2388 206.916C40.6228 200.542 45.5409 195.066 50.2979 189.771C51.4826 188.452 52.6659 187.134 53.828 185.803C68.3052 169.204 78.2136 149.566 87.7953 130.575C92.3852 121.474 97.1332 112.066 102.342 103.056C115.171 80.8677 130.406 67.0152 147.628 61.8837C166.782 56.1718 189.562 60.9192 215.337 75.9837C221.477 79.5747 227.573 83.5212 233.466 87.3387C247.135 96.1917 261.269 105.345 276.887 110.608C293.612 116.245 313.29 117.772 335.379 115.152C340.306 114.567 345.335 113.79 350.2 113.038C365.739 110.64 381.806 108.16 397.319 111.441C413.164 114.793 427.697 124.389 437.19 137.766C437.886 138.745 438.662 139.728 439.486 140.767C441.207 142.938 442.984 145.183 444.08 147.531C447.103 154.002 449.17 161.658 450.224 170.289C450.353 171.337 450.541 172.365 450.723 173.358C450.999 174.861 451.284 176.415 451.362 178.048C451.925 190.119 452.336 201.936 451.181 213.802C450.043 225.475 447.786 237.06 444.475 248.233C442.423 255.16 439.373 264.105 433.955 271.851C425.424 284.053 411.003 293.34 391.097 299.449C372.159 305.262 352.388 307.42 332.75 307.42" fill="#74C5E3"/></g><g id="Group 11"><mask id="mask1d5846fa1-fbb4-4637-998f-800fca01025d" mask-type="alpha" maskUnits="userSpaceOnUse" x="326" y="59" width="78" height="78" fill="#ffffff"><path id="Clip 10" fill-rule="evenodd" clip-rule="evenodd" d="M326.935 59.5415H403.942V136.548H326.935V59.5415Z" fill="#ffffff"/></mask><g mask="url(#mask1d5846fa1-fbb4-4637-998f-800fca01025d)"><path id="Fill 9" fill-rule="evenodd" clip-rule="evenodd" d="M403.942 98.0444C403.942 119.31 386.704 136.548 365.438 136.548C344.173 136.548 326.935 119.31 326.935 98.0444C326.935 76.7789 344.173 59.5409 365.438 59.5409C386.704 59.5409 403.942 76.7789 403.942 98.0444" fill="#FED600"/></g></g><path id="Fill 12" fill-rule="evenodd" clip-rule="evenodd" d="M420.058 141C420.052 140.835 439.586 129.5 422.603 108.152C420.017 104.901 408.017 91.9668 386.782 100.622C385.931 100.968 384.988 101.338 384.088 101.688C382.989 102.117 382.004 103.049 381.057 103.75C379.595 104.831 378.16 105.947 376.783 107.134C374.052 109.489 371.546 112.141 369.654 115.222C367.616 118.544 366.393 122.283 366.008 126.156C365.26 125.851 364.502 125.573 363.734 125.322C362.8 125.017 361.851 124.751 360.894 124.523C360.017 124.315 359.03 124.001 358.126 124.013C357.284 124.025 356.435 123.664 355.596 123.54C354.639 123.401 345.29 119.516 334.054 124.819C333.248 125.2 332.564 125.664 331.863 126.155C330.474 127.129 329.194 128.281 328.037 129.5C326.957 130.639 325.987 131.88 325.165 133.217C324.73 133.922 324.337 134.652 323.987 135.403C323.667 136.088 323.201 136.775 323.076 137.529C322.976 138.135 322.974 138.756 323.076 139.361C323.11 139.573 323.171 139.801 323.348 139.922C323.472 140.006 323.627 140.021 323.775 140.032C324.285 140.073 324.795 140.115 325.304 140.154C325.719 140.187 326.179 140.168 326.567 140.341C326.812 140.453 327.006 140.624 327.275 140.683C327.736 140.781 328.261 140.718 328.727 140.719C330.815 140.733 332.904 140.745 334.991 140.755C339.166 140.779 343.344 140.799 347.519 140.817C351.695 140.835 355.87 140.85 360.046 140.866C364.223 140.879 368.399 140.891 372.574 140.903C376.752 140.914 380.927 140.923 385.104 140.934C389.28 140.941 393.456 140.95 397.631 140.958C401.808 140.967 405.985 140.973 410.161 140.98" fill="white"/></g><path id="Fill 12_2" fill-rule="evenodd" clip-rule="evenodd" d="M82.2226 229.006C84.4302 229.129 86.1167 231.017 85.9937 233.222C85.8692 235.429 83.9837 237.117 81.7761 236.994C79.5685 236.871 77.882 234.983 78.0065 232.775C78.1294 230.57 80.015 228.883 82.2226 229.006" fill="white"/><path id="Fill 14" fill-rule="evenodd" clip-rule="evenodd" d="M366.997 192.431C365.119 192.431 363.541 193.902 363.434 195.801C363.326 197.766 364.835 199.455 366.8 199.565C368.754 199.648 370.454 198.165 370.566 196.2C370.674 194.235 369.165 192.546 367.2 192.436C367.131 192.432 367.064 192.431 366.997 192.431M367.001 201C366.909 201 366.816 200.997 366.721 200.991C363.969 200.839 361.854 198.474 362.008 195.721C362.162 192.969 364.499 190.834 367.279 191.01C370.031 191.163 372.146 193.529 371.992 196.28C371.843 198.938 369.631 201 367.001 201" fill="white"/><path id="Fill 34" fill-rule="evenodd" clip-rule="evenodd" d="M340 255C340 256.657 338.657 258 337 258C335.343 258 334 256.657 334 255C334 253.343 335.343 252 337 252C338.657 252 340 253.343 340 255" fill="#FFF0BA"/><path id="Fill 36" fill-rule="evenodd" clip-rule="evenodd" d="M126 220C126 221.657 124.657 223 123 223C121.343 223 120 221.657 120 220C120 218.343 121.343 217 123 217C124.657 217 126 218.343 126 220" fill="#FFF0BA"/><path id="Fill 38" fill-rule="evenodd" clip-rule="evenodd" d="M163 112C163 113.657 161.657 115 160 115C158.343 115 157 113.657 157 112C157 110.343 158.343 109 160 109C161.657 109 163 110.343 163 112" fill="#FFF0BA"/></g></g><g id="Place" transform="matrix(-1 0 0 1 374 0) scale(1 1)"><g id="Place/Paris"><g id="Group"><g id="Paris"><path id="Fill 8" fill-rule="evenodd" clip-rule="evenodd" d="M328.955 222.108V227.072C327.425 227.561 325.81 227.17 324.114 227.291C323.58 225.698 324.034 224.107 323.803 222.459C325.481 221.917 327.1 222.364 328.955 222.108V222.108ZM323.975 211.883H328.942V207.007H323.975V211.883ZM328.823 191.553C329.269 193.217 328.909 194.798 329.103 196.616H324.051C323.636 195.076 323.998 193.495 323.816 191.814C325.509 191.375 327.115 191.73 328.823 191.553V191.553ZM256 277H341.614C341.614 277 341.867 261.008 342 260.952V180H309.305V231.241H290.64V218.763H266.267V231.873H257.022C257.02 240.036 257.015 248.2 257.011 256.365L256 277Z" fill="#FBB965"/><path id="Fill 10" fill-rule="evenodd" clip-rule="evenodd" d="M250.814 158C244.116 158 237.418 158 230.722 158C228.695 158.004 226.67 158.008 224.567 158.012V178.229H237.267V182.871H224.565C224.564 184.432 224.564 185.993 224.563 187.556H237.249C237.567 189.059 237.377 190.484 237.395 192.198H224.568V196.368H237.25C237.562 197.876 237.381 199.3 237.396 201.01H224.564C224.564 202.571 224.563 204.133 224.563 205.695H237.249C237.565 207.198 237.377 208.622 237.395 210.337H224.568C224.553 219.281 224.539 228.224 224.523 237.388H205V243.958V253.896V271H256.989V255.961C256.993 247.664 256.997 239.368 257 231.07V158H250.814Z" fill="#F29E41"/><path id="Fill 12" fill-rule="evenodd" clip-rule="evenodd" d="M217.499 254.171C220.988 252.894 224.624 252.53 228.226 252.996C232.518 253.552 236.277 255.665 239.848 258.103C242.974 260.236 246.1 262.377 249.439 264.166C254.034 266.631 258.827 265.194 262.205 262.134C263.416 261.036 264.511 259.807 265.668 258.65C266.1 258.217 269.907 254.098 271.174 252.119C272.222 250.485 273.85 249.402 275.395 248.421C279.256 245.972 283.546 244.524 288.134 245.143C292.126 245.679 295.874 246.995 299.155 249.678C302.856 252.707 305.252 256.367 306.139 261.087C306.384 262.39 306.79 262.765 308.354 263.453C309.426 262.365 310.589 261.229 311.704 260.048C314.43 257.155 317.845 255.802 321.646 254.948C326.981 253.752 331.586 255.349 335.946 258.15C338.426 259.742 340.216 262.046 341.599 264.661C342.031 265.476 342.192 266.465 343.254 267.098C345.527 264.965 348.041 263.057 350.974 261.803C353.596 261.619 355.971 262.148 358.118 263.844C360.31 265.576 361.428 269.034 360.848 271.71C360.123 275.059 357.91 276.76 355.039 278H203.004C203.051 275.203 202.809 272.387 203.511 269.63C204.657 265.474 206.6 261.809 209.762 258.837C210.698 257.958 211.756 257.295 212.795 256.594C213.435 256.162 216.489 254.539 217.499 254.171Z" fill="#136286"/><path id="Fill 14" fill-rule="evenodd" clip-rule="evenodd" d="M306.983 222.001C306.817 224.643 307.265 227.312 306.72 230C304.745 229.078 303.178 226.848 301 222L306.983 222.001Z" fill="#F4F5F6"/><path id="Fill 16" fill-rule="evenodd" clip-rule="evenodd" d="M331 270H315.43C313.669 267.742 311.866 265.365 309.995 263.046C306.242 258.392 303.083 253.247 298.819 249.018C294.009 244.246 288.182 241.248 281.759 239.466C278.543 238.574 275.15 238.14 271.849 238.352C267.895 238.608 263.926 239.253 260.171 240.705C253.403 243.323 247.811 247.48 243.337 253.334C240.057 257.625 236.96 262.072 233.324 266.084C232.24 267.281 231.37 268.676 230.394 269.992H215C215.045 269.325 215.071 268.729 215.497 268.082C222.661 257.158 229.75 246.182 236.922 235.261C238.125 233.426 239.061 231.422 240.477 229.712C241.069 228.996 241.411 228.029 241.297 227.007C262.252 227.004 283.207 227.001 304.163 227C305.984 230.893 308.49 234.37 310.753 237.993C314.929 244.686 319.366 251.208 323.554 257.898C325.569 261.114 327.568 264.374 329.834 267.438C330.405 268.211 330.979 268.974 331 270" fill="#FED600"/><path id="Fill 18" fill-rule="evenodd" clip-rule="evenodd" d="M266.979 32.1979C270 31.9244 273.021 31.9493 276.041 32.1813C276.023 38.4313 278.691 129.095 279 132.813C274.008 133.054 269.015 133.074 264.022 132.803C264.022 132 267 33.173 266.979 32.1979Z" fill="#FED600"/><path id="Fill 22" fill-rule="evenodd" clip-rule="evenodd" d="M251.063 191.011C265.118 190.999 279.177 190.997 293.232 191.004C293.822 191.005 294.41 191.107 295 191.161V202.497C293.841 203.217 249.323 202.967 249.323 202.967C248.829 198.989 249.383 195.059 249 191.178C249.688 191.119 250.374 191.013 251.063 191.011Z" fill="#70CDE9"/><path id="Fill 28" fill-rule="evenodd" clip-rule="evenodd" d="M252.258 203C255.505 203 258.752 203.001 262 203.001C260.843 207.539 259.409 211.978 257.355 216.169C256.899 217.099 256.743 217.981 256.81 218.965C253.543 218.978 250.276 218.989 247.011 219C246.927 217.402 247.321 215.991 248.089 214.552C249.704 211.523 250.444 208.077 252.085 205.034C252.379 204.491 252.212 203.685 252.258 203" fill="#FED600"/><path id="Fill 30" fill-rule="evenodd" clip-rule="evenodd" d="M283 203.033C286.074 203.022 289.15 203.011 292.226 203C293.207 205.653 294.034 208.383 295.221 210.937C296.139 212.914 296.626 215.089 297.859 216.924C298.09 217.267 297.959 217.871 297.996 218.355C294.788 219.386 291.5 218.873 288.24 218.867C288.186 218.393 288.228 217.878 288.062 217.45C287.142 215.068 286.139 212.719 285.23 210.333C284.324 207.956 283.556 205.527 283 203.033" fill="#FED600"/><path id="Fill 42" fill-rule="evenodd" clip-rule="evenodd" d="M268 25.3095V18.5605C270.109 17.8266 271.933 17.793 274 18.5807V25.3392C271.995 26.2091 269.994 26.2414 268 25.3095" fill="#13AEAE"/><rect id="Rectangle" x="266" y="24" width="10" height="5" fill="#136286"/><rect id="Rectangle_2" x="263" y="28" width="16" height="5" fill="#13AEAE"/></g><rect id="Rectangle_3" x="258" y="132" width="28" height="8" fill="#13AEAE"/><rect id="Rectangle_4" x="235" y="218" width="75" height="11" fill="#70CDE9"/><path id="Path 2" fill-rule="evenodd" clip-rule="evenodd" d="M264 140L257 187.695L264.565 188L271.5 140H264Z" fill="#FED600"/><path id="Path 2_2" fill-rule="evenodd" clip-rule="evenodd" d="M279 188L272 140H279.565L286.5 188H279Z" fill="#FED600"/><path id="Fill 38" fill-rule="evenodd" clip-rule="evenodd" d="M245.595 187.695C244.707 189.456 245.088 191.045 245.046 192.777C246.819 192.858 248.406 192.93 249.994 193C250.66 192.946 251.325 192.845 251.992 192.845C265.617 192.833 279.242 192.831 292.867 192.837C293.437 192.839 294.009 192.934 294.581 192.985C296.032 192.622 297.577 193.283 299 192.618V187.709L245.595 187.695Z" fill="#13AEAE"/><rect id="Rectangle_5" x="310" y="270" width="30" height="8" fill="#13AEAE"/><rect id="Rectangle_6" x="207" y="270" width="30" height="8" fill="#13AEAE"/></g><g id="Objects"><path id="Fill 59" fill-rule="evenodd" clip-rule="evenodd" d="M25 278H30V133H25V278Z" fill="#ED9AEF"/><path id="Fill 60" fill-rule="evenodd" clip-rule="evenodd" d="M103 278H108V133H103V278Z" fill="#ED9AEF"/><path id="Fill 61" fill-rule="evenodd" clip-rule="evenodd" d="M17 146H116V121H17V146Z" fill="#FFF0FA"/><path id="Fill 62" fill-rule="evenodd" clip-rule="evenodd" d="M84.0212 137.695L82.0741 133.194C81.8858 132.758 82.0687 132.245 82.4818 132.039C82.7835 131.894 83.14 131.944 83.3905 132.173L86.2315 134.735L102.318 127.37C103.625 126.774 105.155 126.894 106.314 127.761C106.627 127.996 106.883 128.263 107 128.558C107 128.558 103.455 131.532 99.4312 133.055L95.6596 141.556C95.3067 142.353 94.7235 143.012 93.9959 143.449L93.069 144L94.6047 135.383L86.7873 138.828C86.3558 139.017 85.8768 139.053 85.4234 138.927C84.8018 138.761 84.2863 138.306 84.0212 137.695" fill="#EE99D0"/><path id="Fill 63" fill-rule="evenodd" clip-rule="evenodd" d="M91.8525 133L96 130.644L90.1396 128.206C89.1567 127.798 88.0783 128.002 87.2323 128.761L87 128.971L91.8525 133Z" fill="#EE99D0"/><path id="Fill 64" fill-rule="evenodd" clip-rule="evenodd" d="M27 135H44V134H27V135Z" fill="#EE99D0"/><path id="Fill 65" fill-rule="evenodd" clip-rule="evenodd" d="M47 134.494L39.6534 128L38 129.465L43.6827 134.498L38 139.534L39.6534 141L45.3382 135.965L45.3445 135.972L47 134.506L46.9916 134.498L47 134.494Z" fill="#EE99D0"/><path id="Fill 66" fill-rule="evenodd" clip-rule="evenodd" d="M17 193H116V168H17V193Z" fill="#FFF0FA"/><path id="Fill 67" fill-rule="evenodd" clip-rule="evenodd" d="M28 181H45V180H28V181Z" fill="#EE99D0"/><path id="Fill 68" fill-rule="evenodd" clip-rule="evenodd" d="M25 180.493L32.3445 174L34 175.465L28.3152 180.5L34 185.535L32.3445 187L26.6618 181.966L26.6534 181.972L25 180.507L25.0063 180.5L25 180.493Z" fill="#EE99D0"/><path id="Fill 69" fill-rule="evenodd" clip-rule="evenodd" d="M95.9806 176C97.2487 176 98 176.827 98 177.506C98 178.322 97.2829 179 95.9806 179C94.8264 179 94 178.217 94 177.506C94 176.827 94.6989 176 95.9806 176V176ZM94 187V185.167H94.751V181.821H94V180H98.1405V185.167H99V187H94Z" fill="#EE99D0"/><path id="Fill 70" fill-rule="evenodd" clip-rule="evenodd" d="M96.499 173C91.814 173 88 176.812 88 181.499C88 186.186 91.814 190 96.499 190C101.186 190 105 186.186 105 181.499C105 176.812 101.186 173 96.499 173M96.499 192C90.71 192 86 187.29 86 181.499C86 175.71 90.71 171 96.499 171C102.29 171 107 175.71 107 181.499C107 187.29 102.29 192 96.499 192" fill="#EE99D0"/><g id="SCALABLE"><rect id="Rectangle_7" x="-25" y="66" width="171" height="212" fill="black" fill-opacity="0.01"/></g></g></g></g><g id="Master/Character/Standing" transform="translate(102 105) scale(1 1)"><g id="Master/Character/Standing"><g id="Standing Lower Body" transform="translate(32 118) scale(1 1)"><g id="Standing Lower Body/Orange Pants"><g id="Lower"><path id="Fill 1" fill-rule="evenodd" clip-rule="evenodd" d="M23.0719 86.3153L34.2309 77.1413L28.9559 71.4003L17.6079 81.5653L22.9299 86.8643L23.0719 86.3153Z" fill="#89a3f9"/><g id="Group 42"><path id="Fill 2" fill-rule="evenodd" clip-rule="evenodd" d="M20.9551 78.5673C20.9551 78.5673 20.4921 84.0583 25.4151 84.1323L28.5381 101.636L13.7881 80.3613L20.9551 78.5673Z" fill="#89a3f9"/><path id="Fill 4" fill-rule="evenodd" clip-rule="evenodd" d="M26.75 102.874L12 81.5979L13.788 80.3609L28.539 101.637L26.75 102.874Z" fill="#FF5A00"/><g id="Group 8"><mask id="mask0c66b9590-5f4a-44d1-bb1f-5b0286c93499" mask-type="alpha" maskUnits="userSpaceOnUse" x="23" y="1" width="51" height="85" fill="#ffffff"><path id="Clip 7" fill-rule="evenodd" clip-rule="evenodd" d="M23.0459 1.0004H73.1632V85.0794H23.0459V1.0004Z" fill="#ffffff"/></mask><g mask="url(#mask0c66b9590-5f4a-44d1-bb1f-5b0286c93499)"><path id="Fill 6" fill-rule="evenodd" clip-rule="evenodd" d="M42.7209 1.0004C42.7209 1.0004 53.1609 46.5964 52.0699 48.4924L23.0459 74.8214L33.0429 85.0794L66.9479 60.5274C80.8059 51.8404 67.1639 1.0004 67.1639 1.0004H42.7209Z" fill="#FF5A00"/></g></g><path id="Fill 9" fill-rule="evenodd" clip-rule="evenodd" d="M63.7449 23.7841C63.7449 24.5511 63.0709 25.1731 62.2399 25.1731C61.4079 25.1731 60.7339 24.5511 60.7339 23.7841C60.7339 23.0171 61.4079 22.3951 62.2399 22.3951C63.0709 22.3951 63.7449 23.0171 63.7449 23.7841" fill="#FFD000"/><path id="Fill 11" fill-rule="evenodd" clip-rule="evenodd" d="M26.6676 72.5043L27.9176 76.3263L23.7046 75.4143L26.6676 72.5043Z" fill="#FF5A00"/><path id="Fill 13" fill-rule="evenodd" clip-rule="evenodd" d="M57.2989 50.0981C57.0699 46.8271 58.3399 43.9501 59.7449 41.3271C61.0009 38.9861 62.3849 36.6811 63.7239 34.4531C66.6639 29.5611 69.8159 25.5901 71.2419 20.7241C72.0739 25.3091 72.4789 29.6971 72.8729 34.7131C72.1189 36.0131 71.3479 37.2971 70.5809 38.5741C69.2329 40.8181 67.9589 42.9381 66.7959 45.1061C65.9569 46.6721 65.1919 48.2931 65.2789 49.5381C65.3639 50.7441 66.2919 52.2021 67.0909 53.3371C68.0179 54.6531 69.0309 55.9261 70.1079 57.1811C69.2659 58.5871 68.2239 59.7261 66.9469 60.5271L64.1699 62.5381C62.8959 61.0621 61.6729 59.5371 60.5499 57.9431C59.1529 55.9591 57.5219 53.2741 57.2989 50.0981" fill="#FFD000"/><path id="Fill 15" fill-rule="evenodd" clip-rule="evenodd" d="M70.8931 47.1215C70.8931 46.3295 71.5891 45.6885 72.4471 45.6885C72.6511 45.6885 72.8461 45.7265 73.0241 45.7925C72.9591 46.7295 72.8671 47.6415 72.7511 48.5265C72.6531 48.5445 72.5511 48.5555 72.4471 48.5555C71.5891 48.5555 70.8931 47.9135 70.8931 47.1215" fill="#FFD000"/><path id="Fill 17" fill-rule="evenodd" clip-rule="evenodd" d="M27.9174 76.3266L23.7044 75.4136L26.6674 72.5046L27.9174 76.3266ZM23.0454 74.8216L27.9334 79.8376L28.3854 79.9356C28.5844 79.9776 28.7844 79.9986 28.9824 79.9986C29.7624 79.9986 30.5164 79.6756 31.0424 79.0916C31.6794 78.3866 31.8844 77.4306 31.5914 76.5346L29.5784 70.3786C29.4594 70.0126 29.2494 69.6976 28.9974 69.4226L23.0454 74.8216Z" fill="#FFD000"/><path id="Fill 19" fill-rule="evenodd" clip-rule="evenodd" d="M54.3548 112.271L53.2588 97.8674L45.5288 98.8854L47.3278 114.014L54.7218 112.702L54.3548 112.271Z" fill="#89a3f9"/><path id="Fill 21" fill-rule="evenodd" clip-rule="evenodd" d="M47.0711 108.923C47.0711 108.923 51.0811 112.91 53.9701 108.923L70.0911 116.425L44.2021 116.273L47.0711 108.923Z" fill="#89a3f9"/><g id="Group 25"><path id="Fill 23" fill-rule="evenodd" clip-rule="evenodd" d="M44.1875 119.077L44.2025 116.273L70.0915 116.47L70.0765 119.273" fill="#FF5A00"/></g><path id="Fill 26" fill-rule="evenodd" clip-rule="evenodd" d="M39.2649 1.0004C39.2649 1.0004 30.8699 13.6094 32.3359 29.1054L43.3999 104.861L57.9049 103.806L58.3809 1.0004H39.2649Z" fill="#FF6E07"/><path id="Fill 28" fill-rule="evenodd" clip-rule="evenodd" d="M50.9394 78.936C51.9054 82.514 49.8844 85.503 48.7974 87.11L42.2264 96.827L40.5104 85.083L42.1704 82.629C42.6824 81.873 43.0034 81.324 43.1314 80.992C42.8024 80.648 42.0884 80.14 41.7904 79.927L39.5214 78.31L37.9194 67.342L46.4354 73.414C47.8304 74.408 50.1654 76.073 50.9394 78.936" fill="#FFD000"/><path id="Fill 30" fill-rule="evenodd" clip-rule="evenodd" d="M36.0676 15.4076L40.9706 30.4926C41.6626 32.6186 41.1716 34.8866 39.6576 36.5596C38.4066 37.9416 36.6176 38.7076 34.7666 38.7076C34.4206 38.7076 34.0716 38.6716 33.7246 38.6166L32.3356 29.1056C31.7086 22.4776 32.7496 16.8426 34.1436 12.5586C35.0256 13.3066 35.7006 14.2776 36.0676 15.4076" fill="#FFD000"/><path id="Fill 32" fill-rule="evenodd" clip-rule="evenodd" d="M37.3033 63.12L35.8633 53.26C36.8503 53.819 37.8373 54.382 38.8273 54.921C45.8133 58.727 52.1483 59.7 58.1213 57.888L58.0823 66.156C56.1573 66.565 54.2043 66.775 52.2243 66.775C47.3913 66.775 42.4053 65.554 37.3033 63.12" fill="#FFD000"/><path id="Fill 34" fill-rule="evenodd" clip-rule="evenodd" d="M39.2648 12.4897C39.2648 12.9377 38.8708 13.3007 38.3868 13.3007C37.9008 13.3007 37.5078 12.9377 37.5078 12.4897C37.5078 12.0427 37.9008 11.6797 38.3868 11.6797C38.8708 11.6797 39.2648 12.0427 39.2648 12.4897" fill="#FFD000"/><path id="Fill 36" fill-rule="evenodd" clip-rule="evenodd" d="M57.583 116.346L60.612 112.014L64.727 113.929L63.167 116.346H57.583Z" fill="#FF6E07"/><path id="Fill 38" fill-rule="evenodd" clip-rule="evenodd" d="M21.5127 91.4779L26.7507 91.6179L27.4877 95.7479H24.2647L21.5127 91.4779Z" fill="#FF6E07"/><path id="Fill 40" fill-rule="evenodd" clip-rule="evenodd" d="M53.4399 50.7221C53.4399 51.1071 53.1279 51.4181 52.7429 51.4181C52.3589 51.4181 52.0469 51.1071 52.0469 50.7221C52.0469 50.3371 52.3589 50.0261 52.7429 50.0261C53.1279 50.0261 53.4399 50.3371 53.4399 50.7221" fill="#FFD000"/></g></g></g></g><g id="Head" transform="translate(45 23) scale(1 1)"><g id="Head/Curly"><g id="Hair"><g id="Hair_2"><g id="Group 9"><g id="Group 3"><path id="Fill 1" fill-rule="evenodd" clip-rule="evenodd" d="M48.3185 28.9576C47.6765 27.7486 46.4615 26.7456 45.0925 26.7566C44.7395 26.7596 44.3825 26.8276 44.0395 26.7476C43.5295 26.6286 43.1375 26.2026 42.6345 26.0586C42.2835 25.9576 41.9065 26.0036 41.5475 26.0706C40.6405 26.2396 39.8385 26.5776 38.9935 26.9276C38.8095 27.0036 36.6845 28.0216 36.7855 28.1406C35.3775 26.4516 32.7875 26.0176 30.7565 26.8606C28.7245 27.7036 27.2665 29.6336 26.6545 31.7466C25.3025 31.4086 23.9525 32.3926 23.1755 33.5486C22.5205 34.5226 21.7995 36.1356 22.0515 37.3466C22.1125 37.6366 22.1925 37.9146 22.2415 38.2116C22.3535 38.8886 22.5875 39.5436 22.9185 40.1446C23.4805 41.1656 24.3275 42.0356 25.3515 42.5956C26.5285 43.2386 27.6285 44.0926 28.7485 44.8446C29.8505 45.5846 30.9785 46.3476 31.7495 47.4286C32.3365 48.2496 32.6845 49.2116 33.1345 50.1146C33.6325 51.1136 34.2545 52.0436 34.8745 52.9706C35.0275 53.1996 35.1835 53.4326 35.3995 53.6056C36.2915 54.3196 37.7455 53.7326 38.6405 53.3106C39.4625 52.9226 40.2625 52.4926 41.0355 52.0146C42.5565 51.0726 43.9715 49.9386 45.1475 48.5836C45.9515 47.6576 46.6385 46.6286 47.1635 45.5186C48.4585 42.7716 48.7125 39.6656 48.9455 36.6376C49.0825 34.8746 49.4085 33.1756 49.1025 31.4376C48.9625 30.6446 48.7605 29.8546 48.4055 29.1286C48.3775 29.0716 48.3485 29.0146 48.3185 28.9576Z" fill="#342a83"/></g><g id="Group 6"><g id="Group"><rect id="Rectangle" x="37.1895" y="44.4042" width="8" height="17" rx="4" transform="rotate(10 37.1895 44.4042)" fill="#89a3f9"/><path id="Fill 44" fill-rule="evenodd" clip-rule="evenodd" d="M43.0849 57.1585C38.0049 56.7165 35.7188 49.4616 35.7188 49.4616L43.9835 51.9485L43.0849 57.1585Z" fill="#7294e8"/></g><path id="Fill 4" fill-rule="evenodd" clip-rule="evenodd" d="M42.2765 53.5851V53.5851C46.5215 53.3161 49.8055 49.7401 49.7035 46.2661L49.4135 38.0681C49.2835 33.7141 46.2675 30.2101 41.9105 30.1941C37.4505 30.1801 32.4955 33.8171 32.4805 38.2771L32.7875 44.8681C33.0235 49.9651 37.1725 53.5671 42.2765 53.5851" fill="#89a3f9"/></g><path id="Fill 7" fill-rule="evenodd" clip-rule="evenodd" d="M49.4057 36.7089C49.1637 35.7319 49.2937 34.7039 49.2137 33.7009C49.1357 32.6989 48.7927 31.7509 47.9447 31.1659C46.9627 30.4879 45.9327 29.9199 44.7887 29.5649C44.4507 29.4599 44.1807 29.3539 43.8397 29.4069C43.6717 29.4339 43.5007 29.4479 43.3297 29.4509C42.9717 29.4589 42.6147 29.4219 42.2617 29.3659C41.5557 29.2559 40.8647 29.0679 40.1547 28.9739C36.7087 28.5179 33.2177 30.5559 31.4077 33.5249C29.5967 36.4929 29.3057 40.2119 30.0277 43.6139C30.0787 43.8539 30.1447 44.1119 30.3367 44.2669C30.6097 44.4899 30.8247 44.2349 31.0877 44.2139C31.4917 44.1819 31.9587 44.2179 32.3587 44.2709C33.1377 44.3769 33.6957 44.7849 34.1027 45.4249C34.3387 45.7959 34.6717 46.0599 35.1357 46.0209C35.3267 46.0049 35.5127 45.9389 35.6717 45.8329C35.7177 45.8029 36.0847 45.4999 36.0317 45.4369C35.4207 44.7149 35.1687 43.7139 35.3477 42.7869C35.4047 42.4999 35.3947 42.3949 35.3377 42.1089C35.2717 41.7799 35.2477 41.4609 35.2827 41.1279C35.3127 40.8369 35.2437 40.5749 35.2287 40.2859C35.2127 39.9669 35.2607 39.6439 35.3727 39.3439C35.4837 39.0429 35.7267 38.8759 35.8787 38.6119C36.0547 38.3029 36.2107 37.9799 36.3757 37.6649C36.7027 37.0439 36.8057 36.0229 37.6257 36.1809C38.1817 36.2899 38.7387 36.3979 39.2977 36.4869C40.4197 36.6649 41.5467 36.7919 42.6787 36.8679C43.6537 36.9329 44.6307 36.9599 45.6087 36.9479C46.8777 36.9329 48.1447 36.8539 49.4057 36.7089Z" fill="#342a83"/><path id="Path" fill-rule="evenodd" clip-rule="evenodd" d="M35.5377 39.4709C40.9999 33.3035 50.6488 43.3649 51.648 32.6633C51.7256 31.8327 52.0757 28.9101 47.9322 29.5537C46.437 29.786 44.0903 25.5542 41.6927 25.137C32.6067 23.5559 25.138 45.8729 34.9942 40.2388L35.5377 39.4709Z" fill="#342a83"/></g><path id="Fill 38" fill-rule="evenodd" clip-rule="evenodd" d="M36.8359 51.1764V51.1784C36.8369 51.1784 36.8369 51.1804 36.8399 51.1804L36.8359 51.1764Z" fill="#523E8C"/></g><path id="Fill 10" fill-rule="evenodd" clip-rule="evenodd" d="M28.4984 45.1223C28.0854 46.9063 29.1944 48.6843 30.9764 49.0983C32.7584 49.5103 34.5364 48.3993 34.9484 46.6193C35.3614 44.8373 34.2514 43.0593 32.4704 42.6463C30.6884 42.2333 28.9094 43.3413 28.4984 45.1223" fill="#89a3f9"/><path id="Fill 12" fill-rule="evenodd" clip-rule="evenodd" d="M32.6286 47.0911C32.6286 47.0911 33.1696 44.7531 30.8496 44.6031Z" fill="#7294e8"/></g></g></g><g id="Standing Upper" transform="translate(19 26) scale(1 1)"><g id="Standing Upper/Backpacker Holding Map"><g id="Upper"><g id="Group 3"><mask id="mask0a59ab901-e08f-4b47-857a-6e16b68aa4d5" mask-type="alpha" maskUnits="userSpaceOnUse" x="32" y="39" width="47" height="54" fill="#ffffff"><path id="Clip 2" fill-rule="evenodd" clip-rule="evenodd" d="M32 39.3912H78.1663V92.1399H32V39.3912Z" fill="#ffffff"/></mask><g mask="url(#mask0a59ab901-e08f-4b47-857a-6e16b68aa4d5)"><path id="Fill 1" fill-rule="evenodd" clip-rule="evenodd" d="M62.2117 54.8967C53.0221 53.5794 39.6591 52.8207 36.0681 59.2477C32.4761 65.6737 29.7341 87.5624 36.0681 90.9724C42.4021 94.3844 68.2511 89.7064 75.4911 84.8084C82.7311 79.9104 75.4911 57.0444 75.4911 57.0444C75.4911 57.0444 71.4013 56.2141 62.2117 54.8967Z" fill="#FF8A88"/></g></g><path id="Fill 14" fill-rule="evenodd" clip-rule="evenodd" d="M96.2464 79.0077C96.2424 79.0067 92.8314 77.4857 92.8314 77.4857C93.8584 77.5377 94.9674 77.4297 96.1294 77.1747C97.2924 76.9197 98.5064 76.5197 99.7344 76.0197C100.965 75.5227 102.211 74.9277 103.466 74.2777C104.722 73.6247 105.984 72.9197 107.265 72.1797C109.146 71.0977 111.548 71.7457 112.629 73.6257C113.661 75.4177 113.109 77.6917 111.426 78.8377C110.159 79.6977 108.863 80.5517 107.513 81.3827C106.16 82.2167 104.755 83.0267 103.255 83.7687C101.755 84.5097 100.157 85.1867 98.4244 85.7107C96.6924 86.2317 94.8134 86.5947 92.8404 86.6537C91.5774 86.6927 90.4244 86.1797 89.6134 85.3317L89.4244 85.1327C89.4244 85.1327 71.5084 66.2477 71.4924 66.2307C69.8774 64.5277 69.6234 61.9937 70.7284 59.9567C72.1194 57.3937 74.3004 57.6827 76.7394 58.1637C80.7654 58.9597 83.7564 64.2997 86.2684 67.2587C89.0274 70.5067 91.7854 73.7557 94.5444 77.0017C94.9524 77.4837 95.6534 78.7447 96.2464 79.0077" fill="#89a3f9"/><path id="Fill 16" fill-rule="evenodd" clip-rule="evenodd" d="M49.5429 82.0907C49.7029 83.3837 49.6209 84.6277 49.7659 85.9107C49.9369 87.4327 50.1069 88.9547 50.2789 90.4777C50.6209 93.5217 50.9639 86.5657 51.3069 89.6097C51.3509 90.0057 51.4009 90.4187 51.6249 90.7487C51.8679 91.1087 52.2799 91.3137 52.6849 91.4757C54.4439 92.1817 56.3649 92.3567 58.2569 92.4847C65.7949 92.9957 73.3759 92.8747 80.8939 92.1247C82.7149 82.6627 82.1669 82.9247 81.6119 73.3057C81.4839 71.0877 81.5289 68.7587 81.1259 66.5837C81.1049 66.6307 81.1069 66.6777 81.1119 66.7277C81.1069 66.6807 81.0999 66.6337 81.0969 66.5867C81.0939 66.5627 81.0909 66.5387 81.0889 66.5137C81.0839 66.4417 81.0799 66.3747 81.0749 66.3037C81.0579 66.0477 81.0409 65.7987 81.0259 65.5577C80.9199 63.8747 80.8699 62.5527 80.5869 61.4707C80.5049 61.1617 80.4039 60.8707 80.2789 60.5967C79.9009 59.7767 79.2889 59.1037 78.2629 58.5037C77.6359 58.1357 76.8549 57.7957 75.8769 57.4617C73.7999 56.7537 71.6679 56.8007 69.4579 56.7957C68.2579 56.7927 67.4159 56.6387 66.2249 56.8257C65.5149 56.9367 64.8029 56.8677 64.1199 56.6477C63.2569 56.3697 62.4109 55.9367 61.5939 55.5457C61.2799 55.3957 61.0169 55.1697 60.6899 55.0427C60.1739 54.8417 59.6149 54.7117 59.0809 54.5637C56.9289 53.9687 54.6589 53.5417 52.4319 53.9477C51.1859 54.1747 49.9999 54.6547 48.8419 55.1677C48.4789 55.3297 48.1059 55.5017 47.8329 55.7907C47.4959 56.1477 47.3509 56.6387 47.2159 57.1097C46.9089 58.1797 46.7229 59.4407 46.2079 60.4287C46.0479 60.7367 45.8579 60.9857 45.7859 61.3337C45.5919 62.2727 45.6799 63.3277 45.7719 64.2737C45.9109 65.7057 46.2319 67.1167 46.6469 68.4937C47.0559 69.8417 47.4329 71.2377 47.7719 72.6347C47.8179 72.8227 47.8649 73.0087 47.9079 73.1987C47.9759 73.4867 48.0429 73.7737 48.1099 74.0647C48.7119 76.7147 49.2079 79.3927 49.5429 82.0907" fill="#89a3f9"/><path id="Fill 18" fill-rule="evenodd" clip-rule="evenodd" d="M120.617 70.598C119.855 72.153 115.808 75.025 114.829 76.105C113.848 77.178 109.632 79.405 109.632 79.405L106.337 76.263C106.337 76.263 105.836 75.348 107.197 72.27C108.55 69.187 110.895 64.009 111.838 64.106C112.748 64.202 112.127 68.145 111.969 68.977L111.952 69.056C111.94 69.105 111.966 69.104 112.03 69.068C112.736 68.621 117.938 62.773 118.763 63.29C119.013 63.45 119.332 63.979 119.642 64.687C119.661 64.736 119.682 64.784 119.703 64.841C119.922 65.364 120.138 65.977 120.316 66.606C120.337 66.662 120.349 66.715 120.363 66.775C120.535 67.405 120.674 68.05 120.748 68.637C120.753 68.702 120.761 68.759 120.764 68.818C120.846 69.558 120.815 70.2 120.617 70.598" fill="#89a3f9"/><path id="Fill 42" fill-rule="evenodd" clip-rule="evenodd" d="M67.5534 54.3278C67.5534 54.3278 61.0647 53.991 60.9997 54.009C60.1267 54.248 59.1018 54.486 58.2278 54.725C57.0048 55.059 55.7828 55.393 54.5608 55.727C54.0888 55.856 53.6178 55.985 53.1468 56.114C52.9988 56.154 52.8288 56.178 52.6878 56.239C52.3178 56.397 53.0348 57.02 53.1808 57.181C54.3678 58.497 55.8218 59.565 57.4168 60.336C59.0128 61.108 60.7528 61.585 62.5208 61.722C63.4028 61.79 64.2928 61.773 65.1708 61.665C65.3858 61.639 65.5958 61.603 65.8108 61.593C66.0218 61.582 66.2098 61.507 66.4118 61.443L67.7438 61.02C70.0098 60.393 73.7118 59.369 75.9778 58.742L77.1158 58.472C77.6248 58.352 77.6308 57.631 77.1258 57.501L69.7098 55.594C69.4678 55.532 68.9373 55.1962 69.0847 54.4003L67.5534 54.3278Z" fill="#89a3f9"/><path id="Fill 20" fill-rule="evenodd" clip-rule="evenodd" d="M56.1365 63.7586C56.0595 64.1916 56.0135 64.6106 56.0665 65.0936C56.2175 66.4616 55.6565 67.9586 55.0675 69.1596C54.3065 70.7146 53.2015 72.0876 51.8695 73.1496C51.2055 73.6786 50.4835 74.1316 49.7185 74.4876C49.3775 74.6476 48.9975 74.7446 48.6415 74.8616C48.2625 74.9866 47.7865 75.2306 47.3855 75.2216C47.0955 77.4746 47.2475 92.2116 47.2585 92.9416H81.3125C81.3125 92.9416 83.0305 84.7946 82.5735 82.4736C81.4545 76.7836 79.3075 71.3766 77.6505 65.8286C77.0955 63.9706 76.5926 62.0726 76.4576 60.1246C76.4116 59.4586 76.5635 58.6186 76.3045 57.9886C75.9405 57.0996 74.6195 57.0786 73.8965 56.9516C72.9785 56.7906 72.0475 56.7036 71.1165 56.6916C71.3665 58.5016 71.2545 60.5176 70.1025 61.9016C68.5575 63.7566 65.5726 63.7176 63.6556 62.2826C61.7395 60.8466 60.7625 58.3866 60.4115 55.9626C60.3515 55.5376 60.2905 55.0776 59.9995 54.7726C59.8245 54.5916 59.5885 54.4896 59.3595 54.3936C58.1995 53.9046 57.0175 53.4226 55.7765 53.2116C55.1725 53.1096 55.3675 53.6896 54.7605 53.7876C54.0745 53.8986 53.8585 53.7966 54.1035 54.1026C55.4505 55.7896 56.2625 57.9206 56.4385 60.0996C56.5155 61.0666 56.4675 62.0456 56.2845 62.9976C56.2345 63.2656 56.1805 63.5136 56.1365 63.7586" fill="#F3F562"/><path id="Fill 22" fill-rule="evenodd" clip-rule="evenodd" d="M58.447 81.367C58.447 81.367 55.201 92.525 47.957 92.941L48.597 91.114C48.597 91.114 52.888 89.878 53.178 84.451L58.447 81.367Z" fill="#191723"/><path id="Fill 24" fill-rule="evenodd" clip-rule="evenodd" d="M57.4312 92.2069C57.4312 92.2069 61.9022 69.1489 60.5172 54.3709C60.3512 52.6069 58.6082 52.4399 56.9102 52.9509L49.7382 53.9539C48.5002 54.3249 49.6752 55.0469 49.7412 56.3369L51.6032 93.0379L57.4312 92.2069Z" fill="#F36260"/><path id="Fill 26" fill-rule="evenodd" clip-rule="evenodd" d="M77.529 62.5125C80.413 70.9435 83.33 79.5745 83.258 88.4835C82.79 84.3715 80.008 80.9525 78.31 77.1785C77.104 74.4965 71.297 60.1675 69.38 55.7575C69.308 55.5935 69.237 55.4185 69.262 55.2415C69.325 54.8045 69.883 54.6705 70.325 54.6385C71.541 54.5515 73.511 54.3545 74.335 55.4955C75.262 56.7805 75.958 58.2835 76.536 59.7515C76.894 60.6615 77.213 61.5865 77.529 62.5125" fill="#F36260"/><path id="Fill 28" fill-rule="evenodd" clip-rule="evenodd" d="M95.9023 65.5946L86.9883 92.5516H97.7933H100.389L107.594 65.1786L107.263 65.1916L95.9023 65.5946Z" fill="#F2E9E1"/><path id="Fill 30" fill-rule="evenodd" clip-rule="evenodd" d="M78.7097 66.0536C78.4697 66.7256 78.2307 67.3976 77.9907 68.0696C76.9287 71.0526 72.3537 85.8106 71.7977 86.9966C71.7117 87.1796 71.6277 87.3996 71.7257 87.5766C71.8047 87.7206 71.9737 87.7826 72.1297 87.8336C77.0727 89.4576 82.0107 91.0346 86.9887 92.5516L95.9027 65.5946L81.4917 62.9986L79.8977 62.7096L78.7097 66.0536Z" fill="#F1D8B3"/><path id="Fill 32" fill-rule="evenodd" clip-rule="evenodd" d="M107.595 65.1786L100.389 92.5516L105.665 89.3996L118.972 61.2106L110.267 64.2476L107.595 65.1786Z" fill="#F1D8B3"/><path id="Fill 34" fill-rule="evenodd" clip-rule="evenodd" d="M57.279 64.1234C57.28 64.2344 57.263 64.3504 57.276 64.4594C57.283 64.5224 57.308 64.5794 57.321 64.6404C57.362 64.8514 57.348 65.0844 57.354 65.2984C57.388 66.4564 57.34 67.6164 57.212 68.7674C57.186 69.0064 57.165 69.2364 57.084 69.4634C57.07 69.5054 57.059 69.5474 57.054 69.5924C57.03 69.8164 57.048 70.0504 57.045 70.2764C57.038 71.0034 57.025 71.7294 57.007 72.4564C56.937 75.3354 56.791 78.2114 56.566 81.0824C56.49 82.0424 56.415 83.0624 56.845 83.9264C58.047 86.3504 63.831 84.9734 65.883 84.7624C66.765 84.6694 67.652 84.5654 68.536 84.4504C68.98 84.3934 69.421 84.3314 69.86 84.2694L70.515 84.1714L71.137 84.0774L71.236 84.0614C73.9 83.6464 76.396 85.4714 76.808 88.1354C77.026 89.5354 78.56 88.5294 77.285 89.2904C72.875 90.1434 68.526 91.7524 64.076 92.3684C59.203 93.0394 49.4 94.5774 46.894 88.7484C46.093 86.8834 46.031 84.7944 45.978 82.7644C45.877 78.9004 45.79 77.0374 45.696 73.1724C45.648 71.2214 45.6 69.2694 45.552 67.3184C45.535 66.5914 45.502 65.8634 45.498 65.1364C45.498 65.0414 45.524 64.9664 45.543 64.8744C45.597 64.6174 45.551 64.3114 45.549 64.0484C45.544 63.4634 45.54 62.8784 45.535 62.2934C45.534 62.0824 45.532 61.8724 45.53 61.6614C45.526 61.1544 45.522 60.6444 45.588 60.1424C45.726 59.1054 46.159 58.1334 46.688 57.2404C46.795 57.0594 46.872 56.9144 46.913 56.7094C46.932 56.6164 46.973 56.5374 47.029 56.4594C47.356 56.0004 47.849 55.6444 48.347 55.3924C48.543 55.2924 48.748 55.2074 48.956 55.1344C49.781 54.8454 50.742 54.7654 51.496 55.2074C51.593 55.2654 51.684 55.3664 51.783 55.4144C51.826 55.4344 51.876 55.4374 51.923 55.4474C52.029 55.4684 52.133 55.4974 52.237 55.5314C52.443 55.6004 52.64 55.6934 52.83 55.8004C53.214 56.0184 53.564 56.2924 53.908 56.5694C54.617 57.1414 55.327 57.7344 55.841 58.4854C56.685 59.7164 56.929 61.2494 57.144 62.7264C57.208 63.1904 57.278 63.6544 57.279 64.1234Z" fill="#89a3f9"/><path id="Fill 36" fill-rule="evenodd" clip-rule="evenodd" d="M82.1247 82.4872C82.1247 82.4872 83.4687 82.5942 83.0987 83.6132C82.8077 84.4012 82.2167 84.5932 82.2167 84.5932C82.2167 84.5932 83.5697 85.1842 82.5537 86.5392C81.9237 87.3792 77.0567 89.6792 74.4297 90.1282C71.8067 90.5782 65.9857 93.3372 67.9487 89.8342C67.9487 89.8342 74.3417 77.6462 77.8307 76.4282C81.3187 75.2112 81.7457 77.4552 81.7977 77.8272C81.8077 77.8922 81.8127 77.9472 81.8157 77.9992C82.2257 78.0812 82.6537 78.3642 82.6807 79.1762C82.6937 79.6882 82.5617 79.9652 82.3927 80.1122C82.0157 80.1502 81.7167 80.2322 81.7167 80.2322C81.7167 80.2322 82.1077 80.3532 82.3927 80.1122C83.0217 80.0462 83.3367 80.4452 83.4437 81.1642C83.5797 82.0732 82.1247 82.4872 82.1247 82.4872" fill="#89a3f9"/><path id="Fill 38" fill-rule="evenodd" clip-rule="evenodd" d="M42.9742 90.1415C42.9592 90.1415 42.9452 90.1405 42.9302 90.1375C42.8042 90.1125 42.7222 89.9915 42.7452 89.8655C44.6432 80.0375 40.6822 59.7295 40.6422 59.5255C40.6172 59.3995 40.6992 59.2775 40.8252 59.2525C40.9582 59.2265 41.0732 59.3095 41.0972 59.4355C41.1382 59.6415 45.1172 80.0375 43.2032 89.9535C43.1812 90.0645 43.0832 90.1415 42.9742 90.1415" fill="#D75000"/></g></g></g><g id="Facial Expression" transform="translate(78 58) scale(1 1)"><g id="Facial Expression/Laugh"><g id="Expression"><path id="Fill 1" fill-rule="evenodd" clip-rule="evenodd" d="M10.0744 10.4623C10.1914 10.5683 10.3124 10.6713 10.4294 10.7773C10.5724 10.9093 10.6974 11.0523 10.8244 11.1993C10.8374 11.2143 10.8324 11.2093 10.8104 11.1783C10.8184 11.1883 10.8244 11.1993 10.8304 11.2083C10.8404 11.2243 10.8494 11.2383 10.8594 11.2543C10.8694 11.2723 10.8784 11.2913 10.8884 11.3113C10.9164 11.3633 10.8744 11.3113 10.8844 11.2963C10.8844 11.2963 10.8954 11.3483 10.8974 11.3493C10.8864 11.3413 10.8974 11.2683 10.8924 11.3223C10.8884 11.3643 10.9194 11.2493 10.8924 11.3103C10.8874 11.3223 10.8834 11.3333 10.8794 11.3483C10.8894 11.3223 10.8884 11.3253 10.8744 11.3543C10.8614 11.3783 10.8484 11.4003 10.8344 11.4213C10.8284 11.4303 10.7664 11.5093 10.8004 11.4713C10.7584 11.5173 10.7144 11.5603 10.6664 11.6023C10.6454 11.6203 10.6264 11.6363 10.6054 11.6553C10.5974 11.6613 10.5144 11.7213 10.5534 11.6913C10.5044 11.7283 10.4504 11.7633 10.3964 11.7953C10.2754 11.8753 10.2044 12.0363 10.2844 12.1713C10.3554 12.2923 10.5284 12.3673 10.6584 12.2843C10.9134 12.1223 11.1754 11.9373 11.3284 11.6693C11.4064 11.5343 11.4604 11.3953 11.4364 11.2373C11.4234 11.1443 11.3824 11.0503 11.3314 10.9683C11.1154 10.6163 10.7804 10.3583 10.4764 10.0843C10.3654 9.9843 10.2014 9.9643 10.0864 10.0733C9.98435 10.1663 9.96335 10.3623 10.0744 10.4623" fill="#073944"/><path id="Fill 3" fill-rule="evenodd" clip-rule="evenodd" d="M7.16193 5.7887C8.05493 5.3647 7.60093 3.9907 6.62693 4.1487C5.77793 4.2887 4.74693 4.6217 4.33193 5.4177C3.56993 6.8737 6.17193 6.2307 7.13493 5.8027C7.14293 5.7977 7.15193 5.7937 7.16193 5.7887" fill="#004E55"/><path id="Fill 5" fill-rule="evenodd" clip-rule="evenodd" d="M13.3055 5.4005C12.5395 5.0875 12.8555 3.9185 13.6765 4.0045C14.3935 4.0815 15.2715 4.3115 15.6565 4.9585C16.3605 6.1405 14.1545 5.7235 13.3295 5.4105C13.3225 5.4065 13.3135 5.4035 13.3055 5.4005" fill="#004E55"/><g id="Group 9"><mask id="mask072239de9-3907-4cf9-b6ba-1a89e0a5a9b4" mask-type="alpha" maskUnits="userSpaceOnUse" x="7" y="12" width="5" height="4" fill="#ffffff"><path id="Clip 8" fill-rule="evenodd" clip-rule="evenodd" d="M7.2312 12.7608H11.8055V16H7.2312V12.7608Z" fill="#ffffff"/></mask><g mask="url(#mask072239de9-3907-4cf9-b6ba-1a89e0a5a9b4)"><path id="Fill 7" fill-rule="evenodd" clip-rule="evenodd" d="M11.8055 13.0688L7.29254 12.7608L7.23654 13.5848C7.15154 14.8298 8.09254 15.9098 9.33854 15.9948C10.5845 16.0798 11.6635 15.1388 11.7485 13.8928L11.8055 13.0688Z" fill="#073944"/></g></g><path id="Fill 10" fill-rule="evenodd" clip-rule="evenodd" d="M14.5811 9.1505C14.5841 9.1495 14.5871 9.1485 14.5911 9.1475C14.7771 9.0795 14.9381 8.9585 15.1201 8.8795C15.2861 8.8075 15.4441 8.7175 15.5921 8.6115C15.8911 8.3985 16.1421 8.1255 16.3591 7.8315C16.4421 7.7195 16.5201 7.6045 16.5961 7.4875C16.6481 7.4055 16.8031 7.2635 16.7431 7.0465C16.6701 6.8925 16.3021 6.8605 16.0631 6.7735C15.2301 6.4685 14.3861 6.5175 13.5421 6.7265C13.3981 6.7615 13.3011 6.8735 13.2381 7.0105C13.2111 7.0705 13.2441 7.2155 13.2481 7.2825C13.2541 7.3815 13.2631 7.4805 13.2731 7.5785C13.2941 7.7715 13.3241 7.9625 13.3611 8.1515C13.3951 8.3275 13.4521 8.5045 13.4691 8.6825C13.4841 8.8645 13.5301 9.0525 13.5931 9.2245C13.6151 9.2835 13.6241 9.3125 13.6831 9.3175C13.7311 9.3225 13.7881 9.3075 13.8361 9.3045C14.0871 9.2845 14.3461 9.2335 14.5811 9.1505" fill="#073944"/><path id="Fill 12" fill-rule="evenodd" clip-rule="evenodd" d="M5.40607 9.2623C5.41407 9.2833 5.42507 9.3033 5.43907 9.3213C5.47907 9.3683 5.53507 9.4003 5.59107 9.4263C5.79307 9.5213 6.00707 9.5283 6.21607 9.5933C6.25807 9.6053 6.30007 9.6123 6.34307 9.6153C6.60607 9.6323 6.87107 9.6433 7.13507 9.6513C7.72807 9.6713 8.32807 9.6253 8.86807 9.3543C8.18407 8.0103 7.10507 7.3413 5.64807 7.2363C5.59607 7.2323 5.49407 7.8233 5.48407 7.8853C5.44907 8.1043 5.43107 8.3253 5.42207 8.5463C5.41507 8.6893 5.40707 8.8323 5.40207 8.9753C5.39907 9.0643 5.37507 9.1743 5.40607 9.2623" fill="#073944"/><path id="Fill 14" fill-rule="evenodd" clip-rule="evenodd" d="M13.2382 7.0104C12.9672 6.9114 12.7902 7.0924 12.6062 7.2344C11.9532 7.7394 11.5192 8.2744 11.0452 9.1414C11.0412 9.3344 11.2112 9.3904 11.3302 9.4124C12.0802 9.5484 12.9232 9.6074 13.6582 9.3174C13.6582 9.3174 13.2482 7.7654 13.2382 7.0104" fill="#E5E2FC"/><path id="Fill 16" fill-rule="evenodd" clip-rule="evenodd" d="M5.38865 9.2657C5.38165 9.1407 5.40965 8.9907 5.41065 8.8727C5.41565 8.6857 5.42165 8.4987 5.43565 8.3117C5.45065 8.1257 5.47165 7.9397 5.50665 7.7567C5.51665 7.7037 5.60465 7.2357 5.64865 7.2367C4.80465 7.2327 3.78665 7.1987 3.11865 7.9117C3.24665 8.2197 3.66465 8.4387 3.91765 8.6437C4.18665 8.8627 4.40465 9.0787 4.74465 9.1957C4.86265 9.2367 4.98565 9.2807 5.10465 9.3007C5.18665 9.3147 5.32365 9.3677 5.39765 9.3407C5.39265 9.3167 5.38965 9.2917 5.38865 9.2657" fill="#E5E2FC"/><path id="Stroke 18" d="M11.7881 7.84348C12.9044 6.51563 14.4914 6.04859 16.6733 6.92642C16.7663 6.96383 16.8114 7.06955 16.774 7.16255C16.7366 7.25554 16.6309 7.3006 16.5379 7.26319C14.5075 6.44634 13.0849 6.86498 12.066 8.07706C11.8755 8.30373 11.7119 8.54398 11.559 8.80773L11.2915 9.29346C11.2392 9.37899 11.1275 9.40594 11.0419 9.35366C10.9564 9.30139 10.9295 9.18967 10.9817 9.10415L11.245 8.62566C11.4077 8.34495 11.5828 8.08779 11.7881 7.84348Z" fill="#073944"/><path id="Stroke 20" d="M3.09621 7.70484C5.19444 6.58311 6.83938 6.89389 8.10546 8.10517C8.23926 8.23318 8.3627 8.36574 8.48053 8.50536L8.65369 8.72038C8.73873 8.8308 8.92428 9.08874 8.93829 9.1065C9.00036 9.1852 8.98689 9.29933 8.90818 9.36141C8.82948 9.42348 8.71535 9.41001 8.65327 9.3313L8.3661 8.94187C8.20639 8.73451 8.0408 8.54568 7.85452 8.36746C6.69691 7.25996 5.2202 6.98096 3.26735 8.02496C3.17895 8.07222 3.06898 8.03887 3.02172 7.95047C2.97446 7.86207 3.00781 7.7521 3.09621 7.70484Z" fill="#073944"/></g></g></g></g></g></g></svg>